<?xml version="1.0" encoding="UTF-8" standalone="no"?>
<!-- Created with Inkscape (http://www.inkscape.org/) -->

<svg
   xmlns:dc="http://purl.org/dc/elements/1.1/"
   xmlns:cc="http://creativecommons.org/ns#"
   xmlns:rdf="http://www.w3.org/1999/02/22-rdf-syntax-ns#"
   xmlns:svg="http://www.w3.org/2000/svg"
   xmlns="http://www.w3.org/2000/svg"
   xmlns:sodipodi="http://sodipodi.sourceforge.net/DTD/sodipodi-0.dtd"
   xmlns:inkscape="http://www.inkscape.org/namespaces/inkscape"
   version="1.1"
   id="svg110"
   xml:space="preserve"
   width="707.05353"
   height="145.56856"
   viewBox="0 0 707.05353 145.56856"
   sodipodi:docname="pdl-text.svg"
   inkscape:version="0.92.3 (2405546, 2018-03-11)"><metadata
     id="metadata116"><rdf:RDF><cc:Work
         rdf:about=""><dc:format>image/svg+xml</dc:format><dc:type
           rdf:resource="http://purl.org/dc/dcmitype/StillImage" /><dc:title /></cc:Work></rdf:RDF></metadata><defs
     id="defs114"><clipPath
       clipPathUnits="userSpaceOnUse"
       id="clipPath126"><path
         d="M 0,841.89 H 595.28 V 0 H 0 Z"
         id="path124"
         inkscape:connector-curvature="0" /></clipPath></defs><sodipodi:namedview
     pagecolor="#ffffff"
     bordercolor="#666666"
     borderopacity="1"
     objecttolerance="10"
     gridtolerance="10"
     guidetolerance="10"
     inkscape:pageopacity="0"
     inkscape:pageshadow="2"
     inkscape:window-width="1920"
     inkscape:window-height="1027"
     id="namedview112"
     showgrid="false"
     inkscape:zoom="0.21024124"
     inkscape:cx="334.57333"
     inkscape:cy="-246.46067"
     inkscape:window-x="-8"
     inkscape:window-y="-8"
     inkscape:window-maximized="1"
     inkscape:current-layer="g118" /><g
     id="g118"
     inkscape:groupmode="layer"
     inkscape:label="Logo_Pierre-de-Lune"
     transform="matrix(1.3333333,0,0,-1.3333333,-62.279998,953.28922)"><g
       id="g120"><g
         id="g122"
         clip-path="url(#clipPath126)"><g
           id="g128"
           transform="translate(400.5254,708.6014)"><path
             d="M 0,0 C 0,5.268 -3.512,5.888 -7.437,3.925 -13.323,1.137 -21.38,-7.849 -27.37,-23.651 c -0.93,-2.479 -1.756,-4.958 -2.582,-7.437 3.821,-0.619 7.539,-1.446 10.948,-2.168 1.343,1.549 2.685,3.098 3.925,4.647 C -4.132,-15.182 0,-5.577 0,0 m -21.689,-36.149 c -0.724,0.104 -1.447,0.31 -2.067,0.517 -2.478,0.516 -4.853,1.136 -7.126,1.652 -1.343,-4.337 -2.376,-8.779 -3.098,-13.117 4.131,2.995 8.366,6.92 12.291,10.948 m -14.666,3.202 -2.997,0.413 c -8.055,0.723 -18.28,-0.516 -23.547,-7.539 -2.067,-2.582 -2.686,-5.474 -2.376,-7.953 0.413,-2.582 1.962,-4.751 4.648,-5.991 4.131,-1.858 11.051,-1.445 20.45,3.718 0.516,3.409 1.136,6.611 1.756,9.193 0.619,2.685 1.342,5.474 2.066,8.159 m 21.378,-25.407 c 0,0.103 0.104,0.309 0.104,0.516 0.207,0.413 1.756,0.929 1.239,-0.516 l -2.271,-4.545 c -2.273,-4.338 -6.508,-12.497 -11.569,-15.906 -4.854,-3.408 -9.915,-0.929 -11.671,4.028 -2.272,6.094 -2.168,15.183 -1.239,23.033 -9.399,-4.958 -16.423,-5.268 -20.76,-3.202 -2.995,1.342 -4.854,3.821 -5.267,6.61 -0.413,2.892 0.413,6.197 2.582,8.985 6.507,8.676 17.455,10.019 28.3,8.986 0.722,2.272 1.549,4.442 2.376,6.611 4.44,11.567 11.257,24.787 23.754,29.126 5.165,1.962 10.742,1.445 10.742,-5.475 -0.104,-5.783 -4.338,-15.699 -15.492,-29.332 -1.137,-1.343 -2.273,-2.789 -3.512,-4.132 10.845,-2.478 32.017,-7.126 40.693,2.376 4.338,4.854 1.24,9.192 -4.131,11.155 -5.06,1.962 -11.672,1.859 -15.493,-1.653 -0.516,-0.62 -1.549,0.104 -0.309,1.549 2.065,2.066 8.469,3.203 13.84,1.653 17.455,-5.061 7.024,-20.243 -10.536,-21.07 -8.985,-0.516 -18.901,1.343 -26.647,3.099 -4.337,-4.648 -9.295,-9.193 -13.943,-12.395 -0.929,-5.99 -2.065,-19.934 0.207,-26.337 3.821,-11.567 15.389,10.226 17.042,13.117 0.619,1.136 1.239,2.479 1.961,3.719"
             style="fill:#231f20;fill-opacity:1;fill-rule:nonzero;stroke:none"
             id="path130"
             inkscape:connector-curvature="0" /></g><g
           id="g132"
           transform="translate(408.2695,650.1434)"><path
             d="m 0,0 c -1.033,-4.131 -7.54,-27.267 4.131,-17.145 4.235,3.718 7.333,8.572 10.122,13.53 0.723,1.136 1.445,2.479 2.066,3.719 l 0.31,0.516 c 0.103,0.413 1.757,0.723 1.136,-0.516 l -2.48,-4.545 c -2.787,-4.957 -5.989,-9.915 -10.327,-13.634 -3.099,-2.685 -7.23,-5.37 -10.639,-1.652 -2.169,2.375 -2.272,6.92 -1.652,13.53 -2.479,-3.821 -6.403,-8.159 -11.052,-6.817 -8.365,2.685 -3.925,20.864 -1.756,26.234 0.724,2.169 6.198,0.93 5.578,-0.619 -0.62,-1.446 -4.338,-13.634 -3.098,-19.624 1.446,-7.23 8.985,-0.517 10.534,3.202 0.207,1.549 1.963,8.262 2.582,12.703 0.311,2.066 7.127,3.409 6.61,0.517 C 1.55,5.371 0.31,1.033 0,0"
             style="fill:#231f20;fill-opacity:1;fill-rule:nonzero;stroke:none"
             id="path134"
             inkscape:connector-curvature="0" /></g><g
           id="g136"
           transform="translate(441.2129,662.3304)"><path
             d="m 0,0 c -4.131,-3.717 -10.948,-19.83 -12.703,-25.717 0,-0.103 -0.104,-0.206 -0.208,-0.31 -0.205,-0.207 -0.619,-0.103 -0.826,0.104 -4.131,4.441 -3.822,6.713 -3.2,11.051 0.619,4.234 1.032,10.535 2.064,14.666 0.826,2.789 6.095,1.136 5.577,-1.033 -0.517,-2.478 -1.343,-10.121 -2.169,-14.976 l -0.515,-3.512 c 1.754,4.545 3.821,9.915 6.402,14.563 1.963,3.409 3.925,7.024 7.127,9.089 3.512,2.273 6.61,0.93 6.61,-3.821 0,-4.648 -1.858,-11.051 -2.168,-12.291 -1.034,-4.131 -7.54,-27.267 4.131,-17.145 4.234,3.718 7.333,8.572 10.121,13.53 0.724,1.136 1.446,2.479 2.067,3.719 l 0.309,0.516 c 0.104,0.413 1.755,0.723 1.136,-0.516 l -2.479,-4.545 C 18.487,-21.585 15.183,-26.543 10.948,-30.262 7.85,-32.947 3.718,-35.632 0.31,-31.914 -6.816,-24.271 6.093,5.372 0,0"
             style="fill:#231f20;fill-opacity:1;fill-rule:nonzero;stroke:none"
             id="path138"
             inkscape:connector-curvature="0" /></g><g
           id="g140"
           transform="translate(482.4199,658.7162)"><path
             d="M 0,0 C 3.512,5.577 -2.17,4.131 -5.061,2.479 -8.572,0.516 -11.052,-2.996 -12.394,-6.713 -8.057,-6.507 -2.375,-3.718 0,0 m 52.983,-16.628 c 15.804,-4.649 31.193,-9.915 40.797,5.783 0.312,0.516 1.034,0.103 0.725,-0.619 -2.48,-4.029 -5.269,-6.817 -8.471,-8.47 -3.098,-1.652 -6.507,-2.686 -10.223,-2.995 -3.72,-0.31 -9.503,0.723 -17.249,2.995 -7.747,2.272 -13.634,3.822 -17.456,4.751 -3.821,0.93 -7.746,1.549 -11.567,1.86 -7.746,0.516 -15.39,-0.517 -22.929,-4.029 -5.268,-2.479 -9.916,-7.643 -15.803,-6.919 -5.163,0.619 -9.605,4.957 -10.121,11.051 -0.62,8.056 5.06,17.661 14.976,18.694 5.267,0.516 8.572,-0.93 5.37,-6.197 -2.684,-4.131 -8.882,-7.127 -13.839,-7.23 -1.034,-3.821 -0.827,-9.295 2.065,-12.187 5.578,-5.578 11.98,1.343 17.145,3.718 15.803,7.333 30.779,4.648 46.58,-0.206"
             style="fill:#231f20;fill-opacity:1;fill-rule:nonzero;stroke:none"
             id="path142"
             inkscape:connector-curvature="0" /></g><g
           id="g144"
           transform="translate(318.7715,637.1234)"><path
             d="m 0,0 v 3.241 c -0.304,1.603 -1.062,3.011 -2.276,4.225 -1.615,1.615 -3.563,2.422 -5.846,2.422 -2.282,0 -4.231,-0.807 -5.845,-2.422 -1.615,-1.614 -2.422,-3.563 -2.422,-5.845 0,-2.283 0.807,-4.228 2.422,-5.836 1.614,-1.609 3.563,-2.413 5.845,-2.413 2.283,0 4.231,0.807 5.846,2.421 C -1.062,-2.993 -0.304,-1.59 0,0 M 1.639,-7.867 H 0 v 3.642 c -0.316,-0.425 -0.662,-0.831 -1.038,-1.22 -1.955,-1.954 -4.316,-2.931 -7.084,-2.931 -2.756,0 -5.11,0.977 -7.066,2.931 -1.954,1.955 -2.931,4.31 -2.931,7.066 0,2.768 0.977,5.129 2.931,7.083 1.956,1.955 4.31,2.932 7.066,2.932 2.768,0 5.129,-0.977 7.084,-2.932 C -0.662,8.315 -0.316,7.909 0,7.484 v 13.785 h 1.639 z"
             style="fill:#231f20;fill-opacity:1;fill-rule:nonzero;stroke:none"
             id="path146"
             inkscape:connector-curvature="0" /></g><g
           id="g148"
           transform="translate(339.7305,645.3724)"><path
             d="m 0,0 c -1.42,1.093 -3.071,1.639 -4.953,1.639 -2.27,0 -4.213,-0.804 -5.827,-2.413 -1.615,-1.609 -2.422,-3.554 -2.422,-5.836 0,-1.882 0.547,-3.533 1.639,-4.953 z m -10.452,-12.765 c 1.541,-1.408 3.375,-2.112 5.499,-2.112 2.283,0 4.231,0.807 5.846,2.421 0.206,0.207 0.4,0.419 0.583,0.638 l 1.729,-0.619 c -0.315,-0.437 -0.674,-0.856 -1.074,-1.257 -1.955,-1.954 -4.316,-2.931 -7.084,-2.931 -2.756,0 -5.11,0.977 -7.066,2.931 -1.954,1.955 -2.931,4.316 -2.931,7.084 0,2.756 0.977,5.11 2.931,7.065 1.956,1.955 4.31,2.932 7.066,2.932 2.367,0 4.437,-0.71 6.21,-2.131 C 1.548,1.014 1.839,0.747 2.131,0.455 2.24,0.346 2.343,0.237 2.44,0.127 L 1.202,-1.111 Z"
             style="fill:#231f20;fill-opacity:1;fill-rule:nonzero;stroke:none"
             id="path150"
             inkscape:connector-curvature="0" /></g><g
           id="g152"
           transform="translate(132.229,702.1967)"><path
             d="m 0,0 c -0.413,0 -0.723,0.31 -0.723,0.62 -0.31,1.652 -1.342,2.995 -3.098,3.821 -4.649,2.376 -12.188,0.62 -15.08,-2.685 -2.169,-2.376 -3.408,-5.784 -4.028,-10.122 7.746,1.549 16.939,1.446 24.478,-3.511 20.037,-13.428 15.183,-43.999 -4.234,-46.478 -8.263,-1.136 -21.483,1.136 -18.385,12.291 0.104,0.309 0.413,0.516 0.723,0.309 0.31,-0.103 0.516,-0.516 0.413,-0.826 -2.685,-9.812 10.019,-12.807 17.042,-9.502 15.286,7.127 16.112,33.051 -2.066,43.689 -5.784,3.408 -12.394,3.924 -18.177,2.582 -0.827,-5.061 -1.447,-10.122 -2.17,-15.183 -3.511,-27.886 -8.159,-64.035 -29.848,-70.336 -6.094,-1.755 -13.737,-1.445 -20.244,1.549 -4.234,2.067 -7.746,5.061 -9.295,8.677 -0.31,0.723 -0.62,1.445 -0.827,2.168 0,0.311 0.103,0.62 0.414,0.62 0.413,0 0.825,-0.207 0.825,-0.516 0.207,-0.723 0.414,-1.343 0.724,-1.86 1.446,-3.305 4.544,-6.093 8.676,-7.953 34.703,-16.215 41.52,48.544 43.895,68.064 0.723,4.958 1.239,9.606 1.859,13.737 1.652,11.052 5.371,18.178 18.281,18.282 4.028,0 10.535,-1.86 11.361,-6.817 C 0.516,0.31 0.31,0 0,0"
             style="fill:#231f20;fill-opacity:1;fill-rule:nonzero;stroke:none"
             id="path154"
             inkscape:connector-curvature="0" /></g><g
           id="g156"
           transform="translate(159.7944,665.9437)"><path
             d="m 0,0 c 0.103,-1.549 -1.446,-2.892 -3.305,-2.892 -1.86,0 -3.409,1.343 -3.409,2.892 -0.103,1.653 1.343,2.996 3.305,2.996 C -1.549,2.996 0,1.653 0,0 m -5.474,-37.079 c -9.399,2.583 -4.545,24.169 -2.892,30.676 0.413,2.169 6.094,1.135 5.783,-0.31 -1.238,-4.441 -9.501,-38.731 4.339,-26.544 4.338,3.718 7.436,8.572 10.224,13.53 0.724,1.136 1.343,2.479 2.067,3.719 0.103,0.103 0.206,0.516 0.309,0.722 l 0.103,0.103 c 0.414,0.311 1.55,0.311 0.93,-0.825 -0.723,-1.55 -1.549,-2.996 -2.375,-4.545 -2.892,-4.958 -6.094,-9.915 -10.432,-13.634 -2.375,-2.168 -4.647,-3.821 -8.056,-2.892"
             style="fill:#231f20;fill-opacity:1;fill-rule:nonzero;stroke:none"
             id="path158"
             inkscape:connector-curvature="0" /></g><g
           id="g160"
           transform="translate(192.7388,658.4042)"><path
             d="M 0,0 C 3.512,5.577 -2.169,4.132 -5.061,2.479 -8.573,0.517 -11.051,-2.995 -12.394,-6.713 -8.057,-6.506 -2.376,-3.718 0,0 m -4.338,5.474 c 5.267,0.517 8.572,-0.929 5.37,-6.197 -2.685,-4.131 -8.882,-7.127 -13.839,-7.23 -1.033,-3.821 -0.827,-9.295 2.065,-12.187 4.132,-4.028 8.469,-2.066 12.187,1.446 2.892,2.685 5.061,6.3 6.817,9.812 0.517,1.032 1.963,1.136 1.446,0 -1.962,-3.822 -4.131,-7.746 -7.229,-10.742 -7.85,-7.539 -20.864,-5.887 -21.793,6.404 -0.62,8.056 5.061,17.661 14.976,18.694"
             style="fill:#231f20;fill-opacity:1;fill-rule:nonzero;stroke:none"
             id="path162"
             inkscape:connector-curvature="0" /></g><g
           id="g164"
           transform="translate(211.6353,676.6854)"><path
             d="M 0,0 C 0.517,4.751 -2.374,6.301 -1.962,3.821 -1.651,2.376 -1.032,1.136 0,0 m 3.719,-16.216 c 1.859,4.339 1.653,5.991 -3.719,10.742 -0.929,-3.408 -2.168,-6.817 -3.614,-10.225 -1.549,-3.615 -3.615,-7.746 -5.577,-11.464 l -0.31,-0.62 c -0.311,-0.516 -1.343,0 -1.033,0.62 2.065,3.925 4.131,8.159 5.784,12.084 1.446,3.408 2.892,7.229 3.718,10.535 -2.066,2.169 -4.131,5.577 -2.995,8.572 0.723,2.169 2.891,2.995 4.441,1.033 0.93,-1.136 1.033,-3.408 0.62,-6.094 4.131,-3.821 10.948,-6.093 9.192,-13.013 -1.136,-4.751 -3.718,-11.052 -5.061,-17.146 -0.827,-4.131 -2.066,-19.726 5.887,-12.807 4.235,3.718 7.333,8.573 10.226,13.531 l 1.962,3.718 0.31,0.516 c 0.103,0.413 1.755,0.723 1.136,-0.516 l -2.479,-4.545 c -2.79,-4.957 -5.99,-9.915 -10.329,-13.633 -6.3,-5.577 -12.497,-4.028 -13.427,4.338 -0.929,8.056 3.512,20.14 5.268,24.374"
             style="fill:#231f20;fill-opacity:1;fill-rule:nonzero;stroke:none"
             id="path166"
             inkscape:connector-curvature="0" /></g><g
           id="g168"
           transform="translate(245.3013,676.6854)"><path
             d="M 0,0 C 0.517,4.751 -2.375,6.301 -1.962,3.821 -1.652,2.376 -1.033,1.136 0,0 m 3.719,-16.216 c 1.859,4.339 1.653,5.991 -3.719,10.742 -0.929,-3.408 -2.168,-6.817 -3.614,-10.225 -1.549,-3.615 -3.615,-7.746 -5.578,-11.464 l -0.309,-0.62 c -0.31,-0.516 -1.344,0 -1.033,0.62 2.065,3.925 4.131,8.159 5.784,12.084 1.445,3.408 2.891,7.229 3.717,10.535 -2.066,2.169 -4.13,5.577 -2.994,8.572 0.722,2.169 2.891,2.995 4.44,1.033 0.93,-1.136 1.034,-3.408 0.621,-6.094 4.131,-3.821 10.948,-6.093 9.191,-13.013 -1.136,-4.751 -3.717,-11.052 -5.06,-17.146 -0.827,-4.131 -2.067,-19.726 5.887,-12.807 4.234,3.718 7.333,8.573 10.225,13.531 l 1.963,3.718 0.309,0.516 c 0.104,0.413 1.755,0.723 1.136,-0.516 l -2.479,-4.545 c -2.789,-4.957 -5.99,-9.915 -10.328,-13.633 -6.3,-5.577 -12.497,-4.028 -13.427,4.338 -0.929,8.056 3.511,20.14 5.268,24.374"
             style="fill:#231f20;fill-opacity:1;fill-rule:nonzero;stroke:none"
             id="path170"
             inkscape:connector-curvature="0" /></g><g
           id="g172"
           transform="translate(287.437,658.4042)"><path
             d="M 0,0 C 3.512,5.577 -2.168,4.132 -5.061,2.479 -8.573,0.517 -11.05,-2.995 -12.394,-6.713 -8.056,-6.506 -2.374,-3.718 0,0 m -4.336,5.474 c 5.266,0.517 8.57,-0.929 5.37,-6.197 -2.685,-4.131 -8.882,-7.127 -13.841,-7.23 -1.032,-3.821 -0.826,-9.295 2.066,-12.187 4.131,-4.028 8.469,-2.066 12.188,1.446 2.891,2.685 5.061,6.3 6.816,9.812 0.517,1.032 1.963,1.136 1.445,0 -1.962,-3.822 -4.13,-7.746 -7.229,-10.742 -7.85,-7.539 -20.862,-5.887 -21.792,6.404 -0.62,8.056 5.061,17.661 14.977,18.694"
             style="fill:#231f20;fill-opacity:1;fill-rule:nonzero;stroke:none"
             id="path174"
             inkscape:connector-curvature="0" /></g></g></g></g></svg>